<?xml version="1.0" encoding="UTF-8"?>
<svg id="Layer_2" data-name="Layer 2" xmlns="http://www.w3.org/2000/svg" xmlns:xlink="http://www.w3.org/1999/xlink" viewBox="0 0 1280 1280">
  <defs>
    <style>
      .cls-1 {
        fill: url(#linear-gradient);
      }
    </style>
    <linearGradient id="linear-gradient" x1="639.55" y1="355.46" x2="639.55" y2="944.86" gradientUnits="userSpaceOnUse">
      <stop offset="0" stop-color="#f7df5e"/>
      <stop offset="1" stop-color="#f7aa36"/>
    </linearGradient>
  </defs>
  <path class="cls-1" d="M1103.05,585.66l1-134h-488.2l441.2-56-15-64-467,116-63,6-338-1v135l-6-42-28.5,6.07,36.5,145.93v163.98H452.29l-229.24,29.02,14,58,357-86,509-1v-159.67l7,34.67,29.5-8.07-36.5-142.93Zm-523-83c3-15,10-42,27.2-42s15.8,25,45.8,25,27-25,45-25,24,34,28,53,10,51,10,51c-91,36-168-2-168-2l12-60Zm-19,81s84,44,183.74,0c0,0,53.26,13,53.26,32s-55,42-144,42c-48,0-148-10-148-41,0-22,55-33,55-33Zm155,109c-51,8-47-24-47-24,0,0,45,2,73-9,0,0,13,27-26,33Zm-115,1c-44-3-34-32-34-32,0,0,34.91,7.48,72.95,7.48,0,0,5.05,27.52-38.95,24.52Zm-87,56l38-15-80-46,42-45c9,7,32,13,32,13,12,70,92,125,92,125l-15,23-109-55Zm285-1c-119.06,16.87-182.01,104.61-182.99,105.98,21-96.99,121.99-148.98,132.99-154.98s9-19,9-19v-24c18-3,38-18,38-18l42,50-82,51c17,0,43,9,43,9Z"/>
</svg>