<?xml version="1.0" encoding="UTF-8"?>
<svg id="Layer_3" data-name="Layer 3" xmlns="http://www.w3.org/2000/svg" viewBox="0 0 1280 1280">
  <defs>
    <style>
      .cls-1 {
        fill: #fff;
      }
    </style>
  </defs>
  <path class="cls-1" d="M616.05,854.66s63-89,183-106c0,0-26-9-43-9l82-51-42-50s-20,15-38,18v24s2,13-9,19-112,58-133,155Z"/>
  <path class="cls-1" d="M623.05,804.66l15-23s-80-55-92-125c0,0-23-6-32-13l-42,45,80,46-38,15,109,55Z"/>
  <path class="cls-1" d="M568.05,562.66s77,38,168,2c0,0-6-32-10-51s-10-53-28-53-15,25-45,25-28.61-25-45.8-25-24.2,27-27.2,42l-12,60Z"/>
  <path class="cls-1" d="M561.05,583.66s84,44,183.74,0c0,0,53.26,13,53.26,32s-55,42-144,42c-48,0-148-10-148-41,0-22,55-33,55-33Z"/>
  <path class="cls-1" d="M567.05,661.66s34.91,7.48,72.95,7.48c0,0,5.05,27.52-38.95,24.52s-34-32-34-32Z"/>
  <path class="cls-1" d="M669.05,668.66s45,2,73-9c0,0,13,27-26,33-51,8-47-24-47-24Z"/>
</svg>